<svg xmlns="http://www.w3.org/2000/svg" viewBox="0 0 512 512">
<rect width="512" height="512" fill="#ffffff"/>
<ellipse cx="256" cy="452" rx="155" ry="20" fill="#000000" opacity="0.08"/>
<defs>
<radialGradient id="appleBody" cx="0.34" cy="0.28" r="0.95">
<stop offset="0" stop-color="#ff8f75"/>
<stop offset="0.18" stop-color="#ff7f66"/>
<stop offset="0.42" stop-color="#ee5a45"/>
<stop offset="0.72" stop-color="#e74c3c"/>
<stop offset="1" stop-color="#c0392b"/>
</radialGradient>
<linearGradient id="appleLeaf" x1="0" y1="0" x2="1" y2="1">
<stop offset="0" stop-color="#7dbb42"/>
<stop offset="1" stop-color="#4e9130"/>
</linearGradient>
<radialGradient id="appleSpec" cx="0.5" cy="0.5" r="0.5">
<stop offset="0" stop-color="#ffffff" stop-opacity="0.5"/>
<stop offset="1" stop-color="#ffffff" stop-opacity="0"/>
</radialGradient>
<clipPath id="appleClip">
<path d="M256 138 C230 108 150 100 112 150 C78 195 80 290 118 355 C150 412 205 428 236 415 C248 410 264 410 276 415 C307 428 362 412 394 355 C432 290 434 195 400 150 C362 100 282 108 256 138 Z"/>
</clipPath>
</defs>
<g clip-path="url(#appleClip)">
<rect x="0" y="0" width="512" height="512" fill="#96281b"/>
<path transform="translate(-30,-26)" d="M256 138 C230 108 150 100 112 150 C78 195 80 290 118 355 C150 412 205 428 236 415 C248 410 264 410 276 415 C307 428 362 412 394 355 C432 290 434 195 400 150 C362 100 282 108 256 138 Z" fill="#c0392b"/>
<path transform="translate(-12,-10)" d="M256 138 C230 108 150 100 112 150 C78 195 80 290 118 355 C150 412 205 428 236 415 C248 410 264 410 276 415 C307 428 362 412 394 355 C432 290 434 195 400 150 C362 100 282 108 256 138 Z" fill="url(#appleBody)"/>
<g fill="none" stroke-linecap="round">
<path d="M150 190 C138 250 140 320 162 380" stroke="#c0392b" stroke-width="7" opacity="0.18"/>
<path d="M190 165 C178 240 180 330 200 400" stroke="#c0392b" stroke-width="9" opacity="0.15"/>
<path d="M235 150 C228 240 228 330 240 408" stroke="#c0392b" stroke-width="8" opacity="0.13"/>
<path d="M295 150 C300 240 300 330 292 408" stroke="#c0392b" stroke-width="9" opacity="0.16"/>
<path d="M340 168 C352 240 352 330 336 396" stroke="#c0392b" stroke-width="8" opacity="0.2"/>
<path d="M378 200 C392 260 390 320 372 372" stroke="#c0392b" stroke-width="7" opacity="0.22"/>
<path d="M170 200 C160 255 162 315 178 368" stroke="#ff9d88" stroke-width="6" opacity="0.35"/>
<path d="M212 172 C202 245 204 325 218 392" stroke="#ff9d88" stroke-width="5" opacity="0.28"/>
</g>
<g fill="#ffd0c4" opacity="0.25">
<circle cx="190" cy="232" r="2.2"/>
<circle cx="222" cy="300" r="2"/>
<circle cx="170" cy="302" r="2.4"/>
<circle cx="302" cy="222" r="2"/>
<circle cx="330" cy="300" r="2.2"/>
<circle cx="280" cy="360" r="2"/>
<circle cx="212" cy="360" r="2.2"/>
<circle cx="350" cy="252" r="2"/>
</g>
<ellipse cx="256" cy="136" rx="52" ry="20" fill="#96281b" opacity="0.3"/>
<ellipse cx="180" cy="205" rx="62" ry="90" fill="url(#appleSpec)" transform="rotate(-24 180 205)"/>
<ellipse cx="162" cy="180" rx="15" ry="30" fill="#ffffff" opacity="0.35" transform="rotate(-26 162 180)"/>
</g>
<path d="M247 150 C243 122 243 98 252 78 C255 71 266 72 267 80 C260 100 261 124 266 148 C260 154 252 154 247 150 Z" fill="#8a5a2f"/>
<path d="M258 149 C255 120 256 96 263 78 L267 80 C260 100 261 124 266 148 Z" fill="#6b4423" opacity="0.85"/>
<path d="M268 120 C296 82 352 70 392 88 C388 128 336 156 294 146 C276 141 266 132 268 120 Z" fill="url(#appleLeaf)"/>
<path d="M268 120 C296 82 352 70 392 88 C356 80 302 90 276 128 Z" fill="#9ccb56" opacity="0.5"/>
<g fill="none" stroke="#3d7d28" stroke-linecap="round">
<path d="M274 124 C310 106 348 96 386 92" stroke-width="3" opacity="0.6"/>
<path d="M302 112 C306 120 308 128 308 134" stroke-width="2" opacity="0.45"/>
<path d="M324 104 C330 114 332 124 332 130" stroke-width="2" opacity="0.45"/>
<path d="M348 98 C354 106 358 114 358 118" stroke-width="2" opacity="0.45"/>
</g>
</svg>
