<svg xmlns="http://www.w3.org/2000/svg" viewBox="0 0 512 512">
<rect width="512" height="512" fill="#ffffff"/>
<ellipse cx="245" cy="452" rx="125" ry="18" fill="#000000" opacity="0.08"/>
<defs>
<linearGradient id="banBody" x1="0" y1="0" x2="1" y2="0.35">
<stop offset="0" stop-color="#ffe27d"/>
<stop offset="0.45" stop-color="#f6cd3e"/>
<stop offset="0.8" stop-color="#e9b52e"/>
<stop offset="1" stop-color="#d59f24"/>
</linearGradient>
<linearGradient id="banHi" x1="170" y1="120" x2="250" y2="430" gradientUnits="userSpaceOnUse">
<stop offset="0" stop-color="#fff3b0" stop-opacity="0.95"/>
<stop offset="0.6" stop-color="#ffec92" stop-opacity="0.6"/>
<stop offset="1" stop-color="#ffec92" stop-opacity="0.15"/>
</linearGradient>
<linearGradient id="banSh" x1="330" y1="150" x2="230" y2="430" gradientUnits="userSpaceOnUse">
<stop offset="0" stop-color="#b98a1f" stop-opacity="0.4"/>
<stop offset="1" stop-color="#a1731a" stop-opacity="0.65"/>
</linearGradient>
<clipPath id="banClip">
<path d="M340 100 C258 122 186 180 162 254 C142 320 162 388 210 428 C226 441 248 447 264 441 C272 438 272 428 264 423 C236 409 226 368 230 312 C238 248 272 192 322 156 C342 143 350 118 340 100 Z"/>
</clipPath>
</defs>
<g clip-path="url(#banClip)">
<rect x="0" y="0" width="512" height="512" fill="url(#banBody)"/>
<path d="M340 100 C258 122 186 180 162 254 C142 320 162 388 210 428" fill="none" stroke="url(#banHi)" stroke-width="28" stroke-linecap="round"/>
<path d="M264 423 C236 409 226 368 230 312 C238 248 272 192 322 156" fill="none" stroke="url(#banSh)" stroke-width="36" stroke-linecap="round"/>
<g fill="none" stroke-linecap="round">
<path d="M326 124 C252 148 192 202 172 266 C158 322 172 378 214 420" stroke="#c79a2e" stroke-width="3" opacity="0.55"/>
<path d="M330 140 C272 168 230 222 218 282 C210 338 224 386 252 420" stroke="#b98a1f" stroke-width="2.5" opacity="0.5"/>
<path d="M318 112 C240 136 180 190 162 252" stroke="#fff6c0" stroke-width="3" opacity="0.7"/>
</g>
<g fill="#8a6a2e" opacity="0.18">
<ellipse cx="216" cy="262" rx="5" ry="8" transform="rotate(-20 216 262)"/>
<ellipse cx="198" cy="318" rx="4" ry="7"/>
<ellipse cx="218" cy="370" rx="5" ry="7" transform="rotate(18 218 370)"/>
<ellipse cx="272" cy="196" rx="4" ry="7" transform="rotate(-38 272 196)"/>
<ellipse cx="308" cy="162" rx="4" ry="6" transform="rotate(-50 308 162)"/>
</g>
</g>
<path d="M240 420 C246 434 256 444 268 442 C276 440 277 431 270 424 C262 415 248 410 240 410 C236 412 237 416 240 420 Z" fill="#6d4c2a"/>
<path d="M258 438 C262 441 266 443 268 442 C276 440 277 431 270 424 Z" fill="#4e3319"/>
<path d="M330 112 L322 78 C320 68 328 61 338 63 L356 68 C362 70 364 77 362 85 L355 110 C347 118 336 118 330 112 Z" fill="#a8842f"/>
<path d="M355 110 L362 85 C363 80 363 74 360 71 L350 112 C352 112 354 111 355 110 Z" fill="#8a6a2e"/>
<ellipse cx="338" cy="66" rx="16" ry="7" fill="#6d4c2a" transform="rotate(12 338 66)"/>
<ellipse cx="338" cy="66" rx="11" ry="4" fill="#57391d" transform="rotate(12 338 66)"/>
</svg>
