<svg xmlns="http://www.w3.org/2000/svg" viewBox="0 0 512 512">
<rect width="512" height="512" fill="#ffffff"/>
<ellipse cx="256" cy="452" rx="165" ry="20" fill="#000000" opacity="0.08"/>
<defs>
<radialGradient id="limeBody" cx="0.35" cy="0.3" r="0.95">
<stop offset="0" stop-color="#b8e26e"/>
<stop offset="0.25" stop-color="#8fce4a"/>
<stop offset="0.55" stop-color="#63ad2f"/>
<stop offset="0.8" stop-color="#4c9327"/>
<stop offset="1" stop-color="#35701c"/>
</radialGradient>
<radialGradient id="limeFlesh" cx="0.4" cy="0.35" r="0.85">
<stop offset="0" stop-color="#e6f4c0"/>
<stop offset="0.6" stop-color="#d3ea9d"/>
<stop offset="1" stop-color="#b9d97e"/>
</radialGradient>
<linearGradient id="limeRind" x1="0" y1="0" x2="1" y2="1">
<stop offset="0" stop-color="#5fa833"/>
<stop offset="1" stop-color="#3f7d20"/>
</linearGradient>
<linearGradient id="limeLeaf" x1="0" y1="0" x2="1" y2="1">
<stop offset="0" stop-color="#7dbb42"/>
<stop offset="1" stop-color="#4e9130"/>
</linearGradient>
<clipPath id="limeClip">
<circle cx="188" cy="228" r="133"/>
</clipPath>
</defs>
<g clip-path="url(#limeClip)">
<rect x="0" y="0" width="512" height="512" fill="#2c611a"/>
<circle cx="178" cy="218" r="133" fill="#4c9327"/>
<circle cx="170" cy="212" r="133" fill="url(#limeBody)"/>
<g fill="#d9efae" opacity="0.5">
<circle cx="120" cy="160" r="2.2"/>
<circle cx="150" cy="130" r="2"/>
<circle cx="182" cy="152" r="2.4"/>
<circle cx="112" cy="210" r="2"/>
<circle cx="146" cy="190" r="2.2"/>
<circle cx="206" cy="122" r="2"/>
<circle cx="98" cy="252" r="2.2"/>
<circle cx="140" cy="248" r="2"/>
<circle cx="178" cy="212" r="2.2"/>
</g>
<g fill="#2c611a" opacity="0.3">
<circle cx="238" cy="300" r="2.4"/>
<circle cx="204" cy="330" r="2.2"/>
<circle cx="262" cy="258" r="2"/>
<circle cx="164" cy="338" r="2.2"/>
<circle cx="230" cy="346" r="2"/>
</g>
<ellipse cx="130" cy="158" rx="20" ry="38" fill="#ffffff" opacity="0.35" transform="rotate(-30 130 158)"/>
</g>
<ellipse cx="188" cy="98" rx="13" ry="8" fill="#63ad2f"/>
<circle cx="188" cy="98" r="4" fill="#35701c"/>
<path d="M200 92 C222 58 270 44 308 54 C302 90 260 112 226 104 C210 100 200 96 200 92 Z" fill="url(#limeLeaf)"/>
<path d="M200 92 C222 58 270 44 308 54 C276 48 232 58 210 98 Z" fill="#9ccb56" opacity="0.5"/>
<g fill="none" stroke="#3d7d28" stroke-linecap="round">
<path d="M206 94 C238 78 272 66 304 58" stroke-width="3" opacity="0.6"/>
<path d="M232 82 C236 90 238 96 238 102" stroke-width="2" opacity="0.45"/>
<path d="M254 72 C260 82 262 90 262 96" stroke-width="2" opacity="0.45"/>
<path d="M278 64 C284 72 288 80 288 84" stroke-width="2" opacity="0.45"/>
</g>
<circle cx="330" cy="302" r="118" fill="url(#limeRind)"/>
<circle cx="330" cy="302" r="107" fill="#eef7d9"/>
<circle cx="330" cy="302" r="97" fill="url(#limeFlesh)"/>
<g stroke="#f2f8e2" stroke-width="7" stroke-linecap="round">
<line x1="330" y1="302" x2="429" y2="302"/>
<line x1="330" y1="302" x2="400" y2="372"/>
<line x1="330" y1="302" x2="330" y2="401"/>
<line x1="330" y1="302" x2="260" y2="372"/>
<line x1="330" y1="302" x2="231" y2="302"/>
<line x1="330" y1="302" x2="260" y2="232"/>
<line x1="330" y1="302" x2="330" y2="203"/>
<line x1="330" y1="302" x2="400" y2="232"/>
</g>
<circle cx="330" cy="302" r="12" fill="#f2f8e2"/>
<g stroke="#a9cf6a" stroke-width="2.5" stroke-linecap="round" opacity="0.6">
<line x1="356" y1="313" x2="404" y2="333"/>
<line x1="341" y1="328" x2="361" y2="376"/>
<line x1="319" y1="328" x2="299" y2="376"/>
<line x1="304" y1="313" x2="256" y2="333"/>
<line x1="304" y1="291" x2="256" y2="271"/>
<line x1="319" y1="276" x2="299" y2="228"/>
<line x1="341" y1="276" x2="361" y2="228"/>
<line x1="356" y1="291" x2="404" y2="271"/>
</g>
<path d="M444 330 A118 118 0 0 1 310 418" fill="none" stroke="#2c611a" stroke-width="5" opacity="0.3" stroke-linecap="round"/>
<ellipse cx="288" cy="252" rx="52" ry="38" fill="#ffffff" opacity="0.18" transform="rotate(-32 288 252)"/>
</svg>
