<svg xmlns="http://www.w3.org/2000/svg" viewBox="0 0 512 512">
  <rect width="512" height="512" fill="#ffffff"/>
  <ellipse cx="256" cy="452" rx="160" ry="20" fill="#000000" opacity="0.08"/>
  <defs>
    <radialGradient id="pg" cx="0.38" cy="0.32" r="0.95">
      <stop offset="0" stop-color="#ffe08a"/>
      <stop offset="0.28" stop-color="#ffc257"/>
      <stop offset="0.55" stop-color="#fb9435"/>
      <stop offset="0.8" stop-color="#f26a30"/>
      <stop offset="1" stop-color="#d84826"/>
    </radialGradient>
    <radialGradient id="pb">
      <stop offset="0" stop-color="#d63a4a" stop-opacity="0.85"/>
      <stop offset="0.7" stop-color="#d63a4a" stop-opacity="0.4"/>
      <stop offset="1" stop-color="#d63a4a" stop-opacity="0"/>
    </radialGradient>
    <linearGradient id="plg" x1="0" y1="0" x2="0.6" y2="1">
      <stop offset="0" stop-color="#5da33e"/>
      <stop offset="1" stop-color="#3c7d2c"/>
    </linearGradient>
    <clipPath id="peachClip">
      <path d="M 256 146 C 160 112 92 174 92 274 C 92 366 170 438 246 442 C 250 449 262 449 266 442 C 342 436 420 366 420 274 C 420 174 352 112 256 146 Z"/>
    </clipPath>
  </defs>
  <path d="M 256 146 C 160 112 92 174 92 274 C 92 366 170 438 246 442 C 250 449 262 449 266 442 C 342 436 420 366 420 274 C 420 174 352 112 256 146 Z" fill="url(#pg)"/>
  <g clip-path="url(#peachClip)">
    <ellipse cx="335" cy="325" rx="135" ry="145" fill="url(#pb)"/>
    <ellipse cx="182" cy="200" rx="62" ry="46" fill="#ffedc2" opacity="0.42" transform="rotate(-28 182 200)"/>
    <ellipse cx="196" cy="214" rx="90" ry="70" fill="#ffffff" opacity="0.12" transform="rotate(-28 196 214)"/>
    <ellipse cx="300" cy="424" rx="55" ry="11" fill="#ff9e5e" opacity="0.3"/>
    <circle cx="168" cy="252" r="4" fill="#ffdf9a" opacity="0.35"/>
    <circle cx="196" cy="290" r="3" fill="#ffdf9a" opacity="0.35"/>
    <circle cx="148" cy="296" r="3.5" fill="#ffdf9a" opacity="0.35"/>
    <circle cx="218" cy="236" r="3" fill="#ffdf9a" opacity="0.35"/>
    <circle cx="186" cy="330" r="3" fill="#ffdf9a" opacity="0.3"/>
    <circle cx="240" cy="196" r="3.5" fill="#ffdf9a" opacity="0.35"/>
    <circle cx="140" cy="250" r="3" fill="#ffdf9a" opacity="0.3"/>
    <circle cx="214" cy="316" r="2.5" fill="#ffdf9a" opacity="0.3"/>
    <path d="M 255 152 C 222 226 220 320 242 424" stroke="#c14a1e" stroke-width="9" fill="none" opacity="0.4" stroke-linecap="round"/>
    <path d="M 264 154 C 233 228 231 320 251 420" stroke="#ffcf8a" stroke-width="3.5" fill="none" opacity="0.55" stroke-linecap="round"/>
  </g>
  <ellipse cx="256" cy="152" rx="26" ry="10" fill="#c05a24" opacity="0.4"/>
  <path d="M 249 152 C 247 132 250 116 257 104 L 270 110 C 263 122 261 138 263 152 Z" fill="#7b4a26"/>
  <path d="M 268 122 C 296 84 356 76 392 102 C 372 142 306 152 268 122 Z" fill="url(#plg)"/>
  <path d="M 276 120 C 312 106 348 100 384 102" stroke="#2f6a26" stroke-width="3" fill="none"/>
  <path d="M 302 111 C 308 100 316 94 326 90" stroke="#2f6a26" stroke-width="2" fill="none" opacity="0.7"/>
  <path d="M 330 106 C 338 96 348 92 358 90" stroke="#2f6a26" stroke-width="2" fill="none" opacity="0.7"/>
  <path d="M 302 113 C 308 122 318 128 330 130" stroke="#2f6a26" stroke-width="2" fill="none" opacity="0.7"/>
</svg>
